<?xml version="1.0" encoding="iso-8859-1"?>
<!-- Generator: Adobe Illustrator 19.0.0, SVG Export Plug-In . SVG Version: 6.00 Build 0)  -->
<svg version="1.1" id="Capa_1" xmlns="http://www.w3.org/2000/svg" xmlns:xlink="http://www.w3.org/1999/xlink" x="0px" y="0px"
	 viewBox="0 0 512 512" style="enable-background:new 0 0 512 512;" xml:space="preserve">
<g>
	<g>
		<path d="M380.179,0H131.821c-24.813,0-45,20.187-45,45v422c0,24.813,20.187,45,45,45h218.358c41.355,0,75-33.645,75-75V45
			C425.179,20.187,404.992,0,380.179,0z M395.179,437c0,1.075-0.052,2.137-0.126,3.193l-24.932-22.335
			c-6.17-5.528-15.654-5.007-21.181,1.164c-5.528,6.17-5.007,15.654,1.164,21.181l31.902,28.578
			c-2.591,2.594-5.497,4.872-8.654,6.776l-32.139-28.791c-6.17-5.528-15.653-5.007-21.181,1.164
			c-5.528,6.171-5.007,15.654,1.164,21.181L335.582,482H131.821c-8.271,0-15-6.729-15-15V45c0-8.271,6.729-15,15-15h248.358
			c8.271,0,15,6.729,15,15V437z"/>
	</g>
</g>
<g>
	<g>
		<path d="M357.46,54.958H154.54c-8.284,0-15,6.716-15,15v155.158c0,8.284,6.715,15,15,15h202.92c8.284,0,15-6.716,15-15V69.958
			C372.46,61.674,365.744,54.958,357.46,54.958z M342.46,210.116H169.54V84.958h172.92V210.116z"/>
	</g>
</g>
<g>
	<g>
		<path d="M210.455,334.99h-6.996v-6.995c0-8.284-6.716-15-15-15s-15,6.716-15,15v6.995h-6.995c-8.284,0-15,6.716-15,15
			s6.716,15,15,15h6.995v6.995c0,8.284,6.716,15,15,15s15-6.716,15-15v-6.995h6.996c8.284,0,15-6.716,15-15
			S218.739,334.99,210.455,334.99z"/>
	</g>
</g>
<g>
	<g>
		<circle cx="299.01" cy="373.6" r="21.619"/>
	</g>
</g>
<g>
	<g>
		<circle cx="343.92" cy="335.93" r="21.619"/>
	</g>
</g>
<g>
</g>
<g>
</g>
<g>
</g>
<g>
</g>
<g>
</g>
<g>
</g>
<g>
</g>
<g>
</g>
<g>
</g>
<g>
</g>
<g>
</g>
<g>
</g>
<g>
</g>
<g>
</g>
<g>
</g>
</svg>
